<?xml version="1.0" standalone="no"?><!DOCTYPE svg PUBLIC "-//W3C//DTD SVG 1.1//EN" "http://www.w3.org/Graphics/SVG/1.1/DTD/svg11.dtd"><svg t="1558425909611" class="icon" style="" viewBox="0 0 1024 1024" version="1.1" xmlns="http://www.w3.org/2000/svg" p-id="12745" xmlns:xlink="http://www.w3.org/1999/xlink" width="64" height="64"><defs><style type="text/css"></style></defs><path d="M825.6 218.24 796.16 247.637333c65.066667 65.152 100.906667 151.722667 100.906667 243.669333 0 91.946667-35.84 178.346667-100.906667 243.584l29.397333 29.354667c73.002667-72.96 113.066667-169.856 113.066667-272.981333C938.666667 388.181333 898.517333 291.2 825.6 218.24zM748.202667 347.392l-29.44 29.44c30.592 30.592 47.36 71.168 47.36 114.474667 0 43.178667-16.896 83.84-47.36 114.432l29.44 29.354667c38.357333-38.357333 59.562667-89.557333 59.562667-143.829333C807.850667 436.864 786.688 385.792 748.202667 347.392zM85.333333 298.666667l0 426.666667 213.333333 0 341.333333 204.8 0-44.202667L640 138.112 640 93.866667 298.666667 298.666667C295.808 298.666667 85.333333 298.666667 85.333333 298.666667zM128 682.666667 128 341.333333l128 0 0 341.333333L128 682.666667zM597.333333 860.501333 298.666667 682.666667 298.666667 341.333333l298.666667-177.834667L597.333333 860.501333z" p-id="12746" fill="#ffffff"></path></svg>