<?xml version="1.0" standalone="no"?><!DOCTYPE svg PUBLIC "-//W3C//DTD SVG 1.1//EN" "http://www.w3.org/Graphics/SVG/1.1/DTD/svg11.dtd"><svg t="1558424404087" class="icon" style="" viewBox="0 0 1233 1024" version="1.1" xmlns="http://www.w3.org/2000/svg" p-id="4767" xmlns:xlink="http://www.w3.org/1999/xlink" width="77.0625" height="64"><defs><style type="text/css"></style></defs><path d="M1218.56 404.48c-10.24-10.24-25.6-20.48-40.96-20.48V256c0-51.2-40.96-92.16-92.16-92.16h-501.76-5.12l-20.48-81.92c-5.12-20.48-15.36-40.96-35.84-56.32C501.76 10.24 481.28 5.12 460.8 5.12H92.16C40.96 5.12 0 46.08 0 97.28v819.2c0 20.48 5.12 40.96 20.48 56.32l5.12 5.12c15.36 20.48 40.96 30.72 66.56 30.72h952.32c40.96 0 76.8-30.72 81.92-71.68l51.2-230.4 51.2-240.64c5.12-25.6 0-46.08-10.24-61.44z m-46.08-15.36z m-675.84-204.8c5.12 20.48 15.36 40.96 35.84 51.2 15.36 15.36 35.84 20.48 56.32 20.48h496.64v122.88H199.68c-30.72 0-56.32 20.48-61.44 51.2l-40.96 199.68V97.28h373.76l5.12 5.12 20.48 81.92zM1131.52 476.16l-46.08 215.04-46.08 220.16H133.12l92.16-430.08H1131.52v-5.12z" p-id="4768" fill="#ffffff"></path></svg>