<?xml version="1.0" standalone="no"?><!DOCTYPE svg PUBLIC "-//W3C//DTD SVG 1.1//EN" "http://www.w3.org/Graphics/SVG/1.1/DTD/svg11.dtd"><svg t="1558425871265" class="icon" style="" viewBox="0 0 1024 1024" version="1.1" xmlns="http://www.w3.org/2000/svg" p-id="10051" xmlns:xlink="http://www.w3.org/1999/xlink" width="64" height="64"><defs><style type="text/css"></style></defs><path d="M900.768 146.944l-23.744-23.744-228.544 228.576 0-186.304-245.984 196.064-190.368 0 0 151.776-0.096 0.096 0.096 0.096 0 150.176 124.448 0-213.376 213.376 23.744 23.744 237.12-237.12 0.864 0 32.096-32.064-0.48-0.384 198.464-198.464 0 0.864 33.568-33.568 0-0.864 252.256-252.256zM245.664 630.112l0-234.976 168.576 0 200.672-159.936 0 126.368 0.032 23.776-244.8 244.768-124.448 0z" p-id="10052" fill="#ffffff"></path><path d="M614.944 630.112l-0.032 0 0 156.832-171.36-134.464-23.904 23.904 228.832 179.552 0-192.256 0.032 0 0-216.16-33.568 33.568z" p-id="10053" fill="#ffffff"></path></svg>